<?xml version="1.0" encoding="utf-8"?>
<!-- Generator: Adobe Illustrator 24.2.0, SVG Export Plug-In . SVG Version: 6.00 Build 0)  -->
<svg version="1.1" id="Layer_1" xmlns="http://www.w3.org/2000/svg" xmlns:xlink="http://www.w3.org/1999/xlink" x="0px" y="0px"
	 viewBox="0 0 500 500" style="enable-background:new 0 0 500 500;" xml:space="preserve">
<style type="text/css">
	.st0{fill:#F5F5F5;}
	.st1{fill:#FFC100;}
	.st2{opacity:0.6;}
	.st3{opacity:0.6;enable-background:new    ;}
	.st4{opacity:0.4;}
	.st5{opacity:0.2;enable-background:new    ;}
	.st6{opacity:0.3;enable-background:new    ;}
	.st7{opacity:0.84;fill:#FAFAFA;enable-background:new    ;}
	.st8{opacity:0.23;fill:#FFC100;enable-background:new    ;}
	.st9{opacity:0.67;fill:#FAFAFA;enable-background:new    ;}
	.st10{opacity:0.41;fill:#FFFFFF;enable-background:new    ;}
	.st11{opacity:0.19;fill:#FFC100;enable-background:new    ;}
	.st12{fill:#FFFFFF;}
	.st13{opacity:0.47;fill:#FAFAFA;enable-background:new    ;}
	.st14{opacity:0.4;fill:#FFFFFF;enable-background:new    ;}
	.st15{opacity:0.4;enable-background:new    ;}
	.st16{opacity:0.5;enable-background:new    ;}
	.st17{opacity:0.5;fill:#FFFFFF;enable-background:new    ;}
	.st18{fill:#263238;}
	.st19{fill:#FAFAFA;}
	.st20{opacity:0.1;fill:#FFC100;enable-background:new    ;}
	.st21{opacity:0.48;fill:#FAFAFA;enable-background:new    ;}
	.st22{opacity:0.14;fill:#FFC100;enable-background:new    ;}
	.st23{fill:#E58A7B;}
	.st24{opacity:0.6;fill:#FFFFFF;enable-background:new    ;}
	.st25{opacity:0.28;fill:#FFC100;enable-background:new    ;}
	.st26{fill:#CF6F64;}
	.st27{fill:#DF5753;}
	.st28{opacity:0.1;enable-background:new    ;}
	.st29{opacity:0.18;fill:#FFC100;enable-background:new    ;}
</style>
<g id="freepik--Shadow--inject-433">
	<ellipse class="st0" cx="250" cy="416.2" rx="193.9" ry="11.3"/>
</g>
<g id="freepik--plant-3--inject-433">
	<path class="st1" d="M157.2,231.8c1.2,0.5,2.4,0.8,3.6,1c2.6,0.3,5.2-0.3,7.3-1.7c3.4-2.2,5.5-6.1,5.2-9.7c0-0.4-0.3-0.6-0.7-0.6
		c-6.3,0-12.3,2.7-16.3,7.6c-0.9-4-1.8-8.2-2.4-12.6c1.7,1.3,3.6,2.1,5.7,2.4c0.9,0.1,1.7,0.1,2.6-0.1c4.5-0.9,8-5.7,11.2-10.8
		c0.1-0.2,0.2-0.4,0.1-0.6c-0.1-0.2-0.2-0.4-0.4-0.4c-8.1-3.4-16.8,3.9-19.6,6.6c-0.4-3.7-0.6-7.4-0.7-11.1c1.7,0.6,3.5,0.9,5.4,1.2
		c4.4,0.5,8.1-0.2,10.7-2.3c3.1-2.4,4.6-6.4,4.2-11.5c0-0.4-0.4-0.7-0.8-0.6c0,0,0,0-0.1,0c-9.3,1.4-16.4,7.3-19.4,10.1
		c0-0.7,0-1.3,0.1-2c0-0.2,0-0.3-0.1-0.5c-0.2-2.5-1.5-4.9-3.5-6.4c-2.3-1.5-5.6-1.7-9.7-0.6c-0.2,0.1-0.4,0.2-0.6,0.5
		c-0.1,0.2-0.1,0.5,0,0.7c0.2,0.3,3.8,6.4,10.1,7.1c0.7,0.1,1.4,0.1,2.1,0c-0.1,1.8-0.1,3.6-0.1,5.5c-4.5-3.8-10.4-5.5-16.2-4.5
		c-0.2,0-0.4,0.2-0.6,0.3c-0.1,0.2-0.2,0.4-0.1,0.6c1.3,6.2,4.3,10.4,8.2,11.1c0.2,0,0.4,0.1,0.5,0.1c2,0.2,4.9-0.4,8.3-3.7
		c0.2,4.2,0.7,8.4,1.4,12.6c-3.4-2.2-11.1-6.1-17.9-2.3c-0.4,0.2-0.5,0.6-0.4,1c2.8,5.6,5.8,8.6,9.3,9h0.1c2.9,0.3,6-1.1,9.5-4.4
		c0.8,4.1,1.7,8,2.7,11.6c-3.2-2.7-7.4-2.8-12.8-0.4c-0.2,0.1-0.4,0.3-0.5,0.6c-0.1,0.2,0,0.5,0.2,0.7c0.2,0.2,4.2,4,9,4.6
		c1.8,0.2,3.7-0.1,5.4-0.9c2,6.7,4.4,13.2,7.2,19.5c0.1,0.2,0.4,0.4,0.6,0.4c0.2,0,0.4,0,0.5-0.1c0.4-0.2,0.6-0.7,0.4-1.1
		C162.5,249.4,159.5,240.7,157.2,231.8z"/>
	<g class="st2">
		<path d="M157.2,231.8c1.2,0.5,2.4,0.8,3.6,1c2.6,0.3,5.2-0.3,7.3-1.7c3.4-2.2,5.5-6.1,5.2-9.7c0-0.4-0.3-0.6-0.7-0.6
			c-6.3,0-12.3,2.7-16.3,7.6c-0.9-4-1.8-8.2-2.4-12.6c1.7,1.3,3.6,2.1,5.7,2.4c0.9,0.1,1.7,0.1,2.6-0.1c4.5-0.9,8-5.7,11.2-10.8
			c0.1-0.2,0.2-0.4,0.1-0.6c-0.1-0.2-0.2-0.4-0.4-0.4c-8.1-3.4-16.8,3.9-19.6,6.6c-0.4-3.7-0.6-7.4-0.7-11.1
			c1.7,0.6,3.5,0.9,5.4,1.2c4.4,0.5,8.1-0.2,10.7-2.3c3.1-2.4,4.6-6.4,4.2-11.5c0-0.4-0.4-0.7-0.8-0.6c0,0,0,0-0.1,0
			c-9.3,1.4-16.4,7.3-19.4,10.1c0-0.7,0-1.3,0.1-2c0-0.2,0-0.3-0.1-0.5c-0.2-2.5-1.5-4.9-3.5-6.4c-2.3-1.5-5.6-1.7-9.7-0.6
			c-0.2,0.1-0.4,0.2-0.6,0.5c-0.1,0.2-0.1,0.5,0,0.7c0.2,0.3,3.8,6.4,10.1,7.1c0.7,0.1,1.4,0.1,2.1,0c-0.1,1.8-0.1,3.6-0.1,5.5
			c-4.5-3.8-10.4-5.5-16.2-4.5c-0.2,0-0.4,0.2-0.6,0.3c-0.1,0.2-0.2,0.4-0.1,0.6c1.3,6.2,4.3,10.4,8.2,11.1c0.2,0,0.4,0.1,0.5,0.1
			c2,0.2,4.9-0.4,8.3-3.7c0.2,4.2,0.7,8.4,1.4,12.6c-3.4-2.2-11.1-6.1-17.9-2.3c-0.4,0.2-0.5,0.6-0.4,1c2.8,5.6,5.8,8.6,9.3,9h0.1
			c2.9,0.3,6-1.1,9.5-4.4c0.8,4.1,1.7,8,2.7,11.6c-3.2-2.7-7.4-2.8-12.8-0.4c-0.2,0.1-0.4,0.3-0.5,0.6c-0.1,0.2,0,0.5,0.2,0.7
			c0.2,0.2,4.2,4,9,4.6c1.8,0.2,3.7-0.1,5.4-0.9c2,6.7,4.4,13.2,7.2,19.5c0.1,0.2,0.4,0.4,0.6,0.4c0.2,0,0.4,0,0.5-0.1
			c0.4-0.2,0.6-0.7,0.4-1.1C162.5,249.4,159.5,240.7,157.2,231.8z"/>
	</g>
</g>
<g id="freepik--Computer--inject-433">
	<path class="st1" d="M176.1,208.3h241.8c4,0,7.2,3.2,7.2,7.2v148.9c0,4-3.2,7.2-7.2,7.2H176.1c-4,0-7.2-3.2-7.2-7.2V215.5
		C168.9,211.5,172.1,208.3,176.1,208.3z"/>
	<path class="st3" d="M176.1,208.3h241.8c4,0,7.2,3.2,7.2,7.2v148.9c0,4-3.2,7.2-7.2,7.2H176.1c-4,0-7.2-3.2-7.2-7.2V215.5
		C168.9,211.5,172.1,208.3,176.1,208.3z"/>
	<path class="st1" d="M329.7,416.2h-59.8c5.9-22.1,2.4-45.9-10.5-68h59.8C332.1,370.3,335.6,394.1,329.7,416.2z"/>
	<path class="st1" d="M326.6,416.2h-59.8c5.9-22.1,2.4-45.9-10.5-68h59.8C329,370.3,332.5,394.1,326.6,416.2z"/>
	<path class="st1" d="M328.6,380h-60.5c-2.1-11.2-6.1-21.9-11.9-31.7h60.5C322.5,358.1,326.6,368.8,328.6,380z"/>
	<g class="st4">
		<path d="M329.7,416.2h-59.8c5.9-22.1,2.4-45.9-10.5-68h59.8C332.1,370.3,335.6,394.1,329.7,416.2z"/>
		<path d="M326.6,416.2h-59.8c5.9-22.1,2.4-45.9-10.5-68h59.8C329,370.3,332.5,394.1,326.6,416.2z"/>
		<path d="M328.6,380h-60.5c-2.1-11.2-6.1-21.9-11.9-31.7h60.5C322.5,358.1,326.6,368.8,328.6,380z"/>
	</g>
	<path class="st1" d="M326.6,416.2h-59.8c5.9-22.1,2.4-45.9-10.5-68h59.8C329,370.3,332.5,394.1,326.6,416.2z"/>
	<path class="st5" d="M326.6,416.2h-59.8c5.9-22.1,2.4-45.9-10.5-68h59.8C329,370.3,332.5,394.1,326.6,416.2z"/>
	<path class="st5" d="M328,380h-59.9c-2.1-11.2-6.1-21.9-11.8-31.7h59.9C321.9,358.1,325.9,368.8,328,380z"/>
	<path class="st1" d="M172.7,208.3h241.8c4,0,7.2,3.2,7.2,7.2v148.9c0,4-3.2,7.2-7.2,7.2H172.7c-4,0-7.2-3.2-7.2-7.2V215.5
		C165.5,211.5,168.7,208.3,172.7,208.3z"/>
	<path class="st6" d="M172.7,208.3h241.8c4,0,7.2,3.2,7.2,7.2v148.9c0,4-3.2,7.2-7.2,7.2H172.7c-4,0-7.2-3.2-7.2-7.2V215.5
		C165.5,211.5,168.7,208.3,172.7,208.3z"/>
	<path class="st1" d="M315.5,411.5h-68.3c-2.6,0-4.7,2.1-4.7,4.7l0,0h77.8C320.2,413.6,318.1,411.5,315.5,411.5
		C315.5,411.5,315.5,411.5,315.5,411.5z"/>
	<path class="st6" d="M315.5,411.5h-68.3c-2.6,0-4.7,2.1-4.7,4.7l0,0h77.8C320.2,413.6,318.1,411.5,315.5,411.5
		C315.5,411.5,315.5,411.5,315.5,411.5z"/>
	<rect x="165.5" y="216.6" class="st1" width="256.2" height="131.6"/>
	<rect x="165.4" y="216.6" class="st7" width="256.2" height="131.6"/>
	<path class="st8" d="M211.8,226.8h172.6c1.6,0,2.8,1.3,2.8,2.8v101c0,1.6-1.3,2.8-2.8,2.8H211.8c-1.6,0-2.8-1.3-2.8-2.8v-101
		C209,228,210.3,226.8,211.8,226.8z"/>
	<path class="st9" d="M386.5,234.1v96.5c0,1.6-1.3,2.8-2.8,2.8H211.1c-1.6,0-2.8-1.3-2.8-2.8v-96.5H386.5z"/>
	<rect x="208.8" y="237.9" class="st10" width="177.2" height="91.8"/>
	<path class="st11" d="M349.8,301.2c-13,0-23.6-10.5-23.6-23.5s10.5-23.6,23.5-23.6c13,0,23.6,10.5,23.6,23.5v0
		C373.3,290.7,362.8,301.2,349.8,301.2z M349.8,254.4c-12.9,0-23.3,10.4-23.3,23.3s10.4,23.3,23.3,23.3c12.9,0,23.3-10.4,23.3-23.3
		c0,0,0,0,0,0C373.1,264.8,362.7,254.4,349.8,254.4z"/>
	<path class="st11" d="M310.2,301.2c-13,0-23.6-10.5-23.6-23.5s10.5-23.6,23.5-23.6c13,0,23.6,10.5,23.6,23.5v0
		C333.7,290.7,323.2,301.2,310.2,301.2z M310.2,254.4c-12.9,0-23.3,10.4-23.3,23.3s10.4,23.3,23.3,23.3c12.9,0,23.3-10.4,23.3-23.3
		c0,0,0,0,0,0C333.5,264.8,323.1,254.4,310.2,254.4z"/>
	<path class="st11" d="M373.2,314.4h-139c-0.1,0-0.1-0.1-0.1-0.1c0,0,0,0,0,0v-3.9c0-0.1,0-0.1,0.1-0.1c0,0,0,0,0,0h139
		c0.1,0,0.1,0.1,0.1,0.1c0,0,0,0,0,0v3.9C373.3,314.3,373.3,314.4,373.2,314.4C373.2,314.4,373.2,314.4,373.2,314.4z M234.3,314.1
		h138.8v-3.6H234.3V314.1z"/>
	<path class="st11" d="M381,321.1H213.8c-0.1,0-0.1-0.1-0.1-0.1c0,0,0,0,0,0v-74.5c0-0.1,0-0.1,0.1-0.1c0,0,0,0,0,0H381
		c0.1,0,0.1,0.1,0.1,0.1c0,0,0,0,0,0V321C381.1,321.1,381.1,321.1,381,321.1C381,321.1,381,321.2,381,321.1z M213.9,320.9h167v-74.3
		h-167L213.9,320.9z"/>
	<path class="st12" d="M378.8,230.5c0,0.8,0.7,1.5,1.5,1.5c0.8,0,1.5-0.7,1.5-1.5c0-0.8-0.7-1.5-1.5-1.5c0,0,0,0,0,0
		C379.5,229,378.8,229.6,378.8,230.5C378.8,230.5,378.8,230.5,378.8,230.5z"/>
	<circle class="st12" cx="374.9" cy="230.5" r="1.5"/>
	<circle class="st12" cx="369.6" cy="230.5" r="1.5"/>
	<rect x="208.2" y="233.9" class="st1" width="178.3" height="0.4"/>
	<polygon class="st13" points="233.9,216.6 210.4,348.2 233.7,348.2 257.2,216.6 	"/>
	<polygon class="st13" points="262.9,216.6 239.4,348.2 251,348.2 274.5,216.6 	"/>
	<polygon class="st14" points="393.1,216.6 369.5,348.2 375.4,348.2 398.9,216.6 	"/>
	<polygon class="st14" points="382.8,216.6 359.3,348.2 365.1,348.2 388.6,216.6 	"/>
	<path class="st1" d="M331.8,411.5h-12.2c-2.6,0-4.7,2.1-4.7,4.7c0,0,0,0,0,0h21.7C336.5,413.6,334.4,411.5,331.8,411.5
		C331.8,411.5,331.8,411.5,331.8,411.5z"/>
	<path class="st15" d="M331.8,411.5h-12.2c-2.6,0-4.7,2.1-4.7,4.7c0,0,0,0,0,0h21.7C336.5,413.6,334.4,411.5,331.8,411.5
		C331.8,411.5,331.8,411.5,331.8,411.5z"/>
	<path class="st1" d="M298.5,360.2c0,2.7-2.2,4.9-4.9,4.9c-2.7,0-4.9-2.2-4.9-4.9c0-2.7,2.2-4.9,4.9-4.9l0,0
		C296.3,355.3,298.5,357.5,298.5,360.2z"/>
	<path class="st16" d="M298.5,360.2c0,2.7-2.2,4.9-4.9,4.9c-2.7,0-4.9-2.2-4.9-4.9c0-2.7,2.2-4.9,4.9-4.9l0,0
		C296.3,355.3,298.5,357.5,298.5,360.2z"/>
</g>
<g id="freepik--plant-2--inject-433">
	<path class="st1" d="M251.7,399.3c-0.7-23.9-0.6-169.9,0.8-181.9l1.9-2.6c0,0-0.9,2.3-1.1,43.4s-0.5,135.1-0.3,141.2H251.7z"/>
	<path class="st1" d="M262.9,310.5c8-13.3,16.8-22.8,23.1-28s-10.3,28.6-16.8,41.2s-14.5,26.5-17.1,38.3
		C251.6,338.1,254.9,323.9,262.9,310.5z"/>
	<path class="st1" d="M252.3,219.1c1.6-15.1-0.6-29.1,7.7-46.9s14.5-31.6,22.5-38.1c1.9-1.6-4.6,29.3-12.2,46.6
		c-5.4,12.2-7.1,21-12.8,29.3C256.1,211.9,252.3,219.1,252.3,219.1z"/>
	<path class="st1" d="M252.3,299.9c1.7-18.7,3.2-36.7,13.9-63.3c2.6-6.5,26.8-51.8,33.1-56.7c3.1-2.4-7.7,27.7-18.3,53
		c-7.9,19-11.2,24.4-20,46.5C257.5,288.1,252.3,299.9,252.3,299.9z"/>
	<path class="st1" d="M238.2,207.6c-9-12.2-17.7-20.4-24.1-24.7s11,25.7,19.4,38.7s15.9,24.4,19.4,35.8
		C251.2,233.6,247.2,219.9,238.2,207.6z"/>
	<path class="st1" d="M252.3,333c-1.7-13-5.2-28.3-10.2-39.6s-12.7-28.7-18.8-34.6c-1.5-1.4,6.4,32.4,11.5,41.3s8.8,17.5,11.9,22.5
		C247.7,324.4,252.3,333,252.3,333z"/>
	<path class="st17" d="M251.7,399.3c-0.7-23.9-0.6-169.9,0.8-181.9l1.9-2.6c0,0-0.9,2.3-1.1,43.4s-0.5,135.1-0.3,141.2H251.7z"/>
	<path class="st17" d="M262.9,310.5c8-13.3,16.8-22.8,23.1-28s-10.3,28.6-16.8,41.2s-14.5,26.5-17.1,38.3
		C251.6,338.1,254.9,323.9,262.9,310.5z"/>
	<path class="st17" d="M252.3,219.1c1.6-15.1-0.6-29.1,7.7-46.9s14.5-31.6,22.5-38.1c1.9-1.6-4.6,29.3-12.2,46.6
		c-5.4,12.2-7.1,21-12.8,29.3C256.1,211.9,252.3,219.1,252.3,219.1z"/>
	<path class="st17" d="M252.3,299.9c1.7-18.7,3.2-36.7,13.9-63.3c2.6-6.5,26.8-51.8,33.1-56.7c3.1-2.4-7.7,27.7-18.3,53
		c-7.9,19-11.2,24.4-20,46.5C257.5,288.1,252.3,299.9,252.3,299.9z"/>
	<path class="st17" d="M238.2,207.6c-9-12.2-17.7-20.4-24.1-24.7s11,25.7,19.4,38.7s15.9,24.4,19.4,35.8
		C251.2,233.6,247.2,219.9,238.2,207.6z"/>
	<path class="st17" d="M252.3,333c-1.7-13-5.2-28.3-10.2-39.6s-12.7-28.7-18.8-34.6c-1.5-1.4,6.4,32.4,11.5,41.3s8.8,17.5,11.9,22.5
		C247.7,324.4,252.3,333,252.3,333z"/>
	<polygon class="st18" points="271.3,416.2 233.4,416.2 230.5,394.5 274.2,394.5 	"/>
	<polygon class="st18" points="277,397 227.7,397 226.3,389.6 278.4,389.6 	"/>
</g>
<g id="freepik--Tablet--inject-433">
	<path class="st1" d="M117.2,231.6h112.8c3.9,0,7,3.1,7,7v170.7c0,3.9-3.1,7-7,7H117.2c-3.9,0-7-3.1-7-7V238.6
		C110.2,234.7,113.3,231.6,117.2,231.6z"/>
	<path class="st3" d="M117.2,231.6h112.8c3.9,0,7,3.1,7,7v170.7c0,3.9-3.1,7-7,7H117.2c-3.9,0-7-3.1-7-7V238.6
		C110.2,234.7,113.3,231.6,117.2,231.6z"/>
	<path class="st1" d="M113.8,231.6h112.7c3.9,0,7,3.1,7,7v170.7c0,3.9-3.1,7-7,7H113.8c-3.9,0-7-3.1-7-7V238.6
		C106.9,234.7,110,231.6,113.8,231.6z"/>
	<path class="st6" d="M113.8,231.6h112.7c3.9,0,7,3.1,7,7v170.7c0,3.9-3.1,7-7,7H113.8c-3.9,0-7-3.1-7-7V238.6
		C106.9,234.7,110,231.6,113.8,231.6z"/>
	<rect x="106.9" y="239.6" class="st19" width="126.7" height="160.3"/>
	<rect x="106.9" y="239.6" class="st20" width="126.7" height="160.3"/>
	<polygon class="st21" points="151.8,240 122.8,400.3 144.9,400.3 173.9,240 	"/>
	<polygon class="st21" points="180.5,239.6 151.5,399.9 162.6,399.9 191.6,239.6 	"/>
	<circle class="st1" cx="170.2" cy="408" r="4.8"/>
	<circle class="st16" cx="170.2" cy="408" r="4.8"/>
	<path class="st1" d="M171.3,235.3c0,0.6-0.5,1.1-1.1,1.1s-1.1-0.5-1.1-1.1c0-0.6,0.5-1.1,1.1-1.1S171.3,234.7,171.3,235.3
		L171.3,235.3z"/>
	<path class="st16" d="M171.3,235.3c0,0.6-0.5,1.1-1.1,1.1s-1.1-0.5-1.1-1.1c0-0.6,0.5-1.1,1.1-1.1S171.3,234.7,171.3,235.3
		L171.3,235.3z"/>
</g>
<g id="freepik--Character--inject-433">
	<path class="st1" d="M324.2,207.3l7.6-1.4c0.5-0.1,0.8-0.5,0.7-1c0-0.1,0-0.1,0-0.2l-6-17.8c-0.2-0.5-0.7-0.8-1.3-0.8l-7.6,1.4
		c-0.5,0.1-0.8,0.5-0.7,1c0,0.1,0,0.1,0,0.2l6,17.8C323.1,207.1,323.6,207.4,324.2,207.3z"/>
	<path class="st3" d="M324.2,207.3l7.6-1.4c0.5-0.1,0.8-0.5,0.7-1c0-0.1,0-0.1,0-0.2l-6-17.8c-0.2-0.5-0.7-0.8-1.3-0.8l-7.6,1.4
		c-0.5,0.1-0.8,0.5-0.7,1c0,0.1,0,0.1,0,0.2l6,17.8C323.1,207.1,323.6,207.4,324.2,207.3z"/>
	<path class="st1" d="M325.1,207.2l7.6-1.4c0.5-0.1,0.8-0.5,0.7-1c0-0.1,0-0.1,0-0.2l-6-17.8c-0.2-0.5-0.7-0.8-1.3-0.8l-7.6,1.4
		c-0.5,0.1-0.8,0.5-0.7,0.9c0,0.1,0,0.1,0,0.2l6,17.8C324,206.9,324.6,207.3,325.1,207.2z"/>
	<path class="st6" d="M325.1,207.2l7.6-1.4c0.5-0.1,0.8-0.5,0.7-1c0-0.1,0-0.1,0-0.2l-6-17.8c-0.2-0.5-0.7-0.8-1.3-0.8l-7.6,1.4
		c-0.5,0.1-0.8,0.5-0.7,0.9c0,0.1,0,0.1,0,0.2l6,17.8C324,206.9,324.6,207.3,325.1,207.2z"/>
	<polygon class="st19" points="323.4,205.2 333,203.4 327.6,187.5 318,189.3 	"/>
	<polygon class="st22" points="323.4,205.2 333,203.4 327.6,187.5 318,189.3 	"/>
	<polygon class="st23" points="318,196.2 318.8,194.4 326,202.5 319.8,203 	"/>
	<path class="st23" d="M381.2,155.4c-1,5-3.2,15,0.3,18.4c0,0-1.4,5-10.6,5c-10.2,0-4.9-5-4.9-5c5.5-1.3,5.4-5.4,4.4-9.3
		L381.2,155.4z"/>
	<path class="st1" d="M361,175.5c0-0.8,1.1-1.5,2.8-2.1c0.9-0.3,1.8-1.6,3.1-1.8c1-0.2,2.3,0.7,3.6,0.6c1.1-0.1,2.2-1.1,3.4-1.1
		s2.2,1,3.5,1.1c0.8,0,1.5-0.9,2.2-0.9s1.3,1.1,1.9,1.3c0.8,0.1,1.7-0.7,2.3-0.5c0.9,0.3,1,1.5,1.4,1.8c1.1,0.9,2,1.8,1,1.9
		c-2.5,0.4-2.6-1-5.1-1s-2.5,1-5,0.9s-2.5-1-5-1s-2.5,0.7-5,0.9C364.3,175.9,362.6,175.9,361,175.5z"/>
	<g class="st2">
		<path d="M361,175.5c0-0.8,1.1-1.5,2.8-2.1c0.9-0.3,1.8-1.6,3.1-1.8c1-0.2,2.3,0.7,3.6,0.6c1.1-0.1,2.2-1.1,3.4-1.1s2.2,1,3.5,1.1
			c0.8,0,1.5-0.9,2.2-0.9s1.3,1.1,1.9,1.3c0.8,0.1,1.7-0.7,2.3-0.5c0.9,0.3,1,1.5,1.4,1.8c1.1,0.9,2,1.8,1,1.9c-2.5,0.4-2.6-1-5.1-1
			s-2.5,1-5,0.9s-2.5-1-5-1s-2.5,0.7-5,0.9C364.3,175.9,362.6,175.9,361,175.5z"/>
	</g>
	<path class="st23" d="M399.3,184.5c1.3,2.8,2.3,5.4,3.4,8.1s1.9,5.5,2.7,8.3c0.8,2.8,1.5,5.7,2,8.6c0.2,1.4,0.5,2.9,0.6,4.4
		c0.1,0.7,0.2,1.5,0.2,2.2l0.2,2.3c0,1.9-0.3,3.8-1,5.6c-0.6,1.5-1.3,2.9-2,4.3c-1.5,2.6-3.2,5-5,7.4c-3.6,4.5-7.5,8.8-11.7,12.7
		l-3.1-2.9c1.6-2.2,3.3-4.4,4.9-6.7s3.2-4.5,4.6-6.8c1.4-2.3,2.7-4.6,3.9-7c0.5-1.1,1-2.2,1.3-3.4c0.3-0.9,0.4-1.8,0.4-2.7l-0.2-1.9
		c-0.1-0.6-0.2-1.3-0.3-2c-0.2-1.3-0.5-2.6-0.8-3.9s-0.6-2.6-1-3.9s-0.7-2.6-1.1-3.9c-0.8-2.6-1.7-5.1-2.6-7.7s-2-5.1-3-7.5
		L399.3,184.5z"/>
	<path class="st1" d="M395.9,175.7c3.5,0.8,7.2,13.3,7.2,13.3l-13.7,8.7c0,0-4.3-10-2.6-14.4C388.5,178.8,391.8,174.8,395.9,175.7z"
		/>
	<path class="st24" d="M395.9,175.7c3.5,0.8,7.2,13.3,7.2,13.3l-13.7,8.7c0,0-4.3-10-2.6-14.4C388.5,178.8,391.8,174.8,395.9,175.7z
		"/>
	<path class="st25" d="M394.1,179.9l-4.7,17.7v0.1l5.5-3.5L394.1,179.9z"/>
	<path class="st1" d="M351.9,175.9c0,0-4,1.4,4,50.6h34c-0.6-13.8-0.6-22.4,6-50.8c-4.8-1-9.6-1.6-14.5-1.9
		c-5.1-0.4-10.3-0.4-15.5,0C359.4,174.4,351.9,175.9,351.9,175.9z"/>
	<path class="st24" d="M351.9,175.9c0,0-4,1.4,4,50.6h34c-0.6-13.8-0.6-22.4,6-50.8c-4.8-1-9.6-1.6-14.5-1.9
		c-5.1-0.4-10.3-0.4-15.5,0C359.4,174.4,351.9,175.9,351.9,175.9z"/>
	<path class="st23" d="M387.2,244.3l-8.1-2.4l3.4,7.8c0,0,5.4,0.5,7.3-2.4L387.2,244.3z"/>
	<polygon class="st23" points="372.5,244.5 375.7,250.8 382.5,249.7 379.1,241.9 	"/>
	<polygon class="st23" points="408.6,415 400.2,415 397.5,395.6 405.9,395.6 	"/>
	<polygon class="st23" points="370.5,415 362.2,415 361.6,395.6 370,395.6 	"/>
	<polygon class="st26" points="361.6,395.7 361.9,405.6 370.3,405.6 370,395.7 	"/>
	<polygon class="st26" points="405.9,395.7 397.5,395.7 398.9,405.6 407.3,405.6 	"/>
	<path class="st1" d="M364.9,226.5c0,0,4.9,57.5,9.9,89.9c4.1,26.2,22.1,87.3,22.1,87.3h11.4c0,0-9.4-59.1-11.5-85
		c-5.2-65.5,3.9-77.1-7-92.3L364.9,226.5z"/>
	<path class="st3" d="M364.9,226.5c0,0,4.9,57.5,9.9,89.9c4.1,26.2,22.1,87.3,22.1,87.3h11.4c0,0-9.4-59.1-11.5-85
		c-5.2-65.5,3.9-77.1-7-92.3L364.9,226.5z"/>
	<path class="st15" d="M375.2,249.1c0,0-4.7,14.6-4.6,35.6c0.8,7.1,1.7,14.2,2.5,20.7C375.9,299.3,380.8,281.5,375.2,249.1z"/>
	<path class="st1" d="M355.9,226.5c0,0-6.6,64.5-6.1,90.1c0.6,26.6,10.3,87.2,10.3,87.2h11.3c0,0-1.8-59-0.8-85.1
		c1.1-28.5,10.1-92.1,10.1-92.1H355.9z"/>
	<path class="st3" d="M355.9,226.5c0,0-6.6,64.5-6.1,90.1c0.6,26.6,10.3,87.2,10.3,87.2h11.3c0,0-1.8-59-0.8-85.1
		c1.1-28.5,10.1-92.1,10.1-92.1H355.9z"/>
	<path class="st1" d="M396.8,415.5c-0.6,0-1.1-0.1-1.6-0.4c-0.3-0.3-0.4-0.7-0.3-1.1c0-0.2,0.2-0.5,0.4-0.6c1-0.4,3.5,1.2,3.8,1.4
		c0.1,0,0.1,0.1,0.1,0.2c0,0.1-0.1,0.1-0.1,0.2C398.3,415.4,397.6,415.5,396.8,415.5z M395.7,413.8c-0.1,0-0.2,0-0.2,0
		c-0.1,0-0.1,0.1-0.2,0.2c-0.1,0.3,0,0.5,0.2,0.7c0.4,0.4,1.5,0.4,3,0.1C397.7,414.4,396.7,414,395.7,413.8L395.7,413.8z"/>
	<path class="st1" d="M399,415.2C399,415.3,398.9,415.3,399,415.2c-0.9-0.5-2.4-2.3-2.2-3.2c0.1-0.3,0.3-0.6,0.7-0.6
		c0.3,0,0.6,0.1,0.8,0.3c0.9,0.8,0.9,3.2,0.9,3.3c0,0.1,0,0.1-0.1,0.2C399.1,415.3,399,415.3,399,415.2z M397.6,411.8L397.6,411.8
		c-0.3,0-0.4,0.1-0.4,0.2c-0.1,0.6,0.8,1.9,1.6,2.6c0-0.9-0.2-1.9-0.8-2.6C397.9,411.9,397.7,411.8,397.6,411.8L397.6,411.8z"/>
	<path class="st1" d="M358.7,415.5c-0.7,0.1-1.4-0.1-2-0.5c-0.3-0.3-0.4-0.6-0.4-1c0-0.2,0.1-0.4,0.3-0.5c1-0.6,4.4,1.1,4.7,1.3
		c0.1,0,0.1,0.1,0.1,0.2c0,0.1-0.1,0.1-0.2,0.2C360.5,415.4,359.6,415.5,358.7,415.5z M357.2,413.8c-0.1,0-0.3,0-0.4,0.1
		c-0.1,0-0.1,0.1-0.1,0.2c0,0.2,0.1,0.5,0.2,0.6c0.5,0.5,1.9,0.5,3.7,0.2C359.6,414.4,358.5,414,357.2,413.8z"/>
	<path class="st1" d="M361.3,415.2L361.3,415.2c-1.1-0.5-3.1-2.3-2.9-3.2c0-0.2,0.2-0.5,0.8-0.6c0.4,0,0.8,0.1,1.1,0.4
		c1,0.9,1.2,3.1,1.2,3.2c0,0.1,0,0.1-0.1,0.2C361.4,415.2,361.4,415.3,361.3,415.2z M359.3,411.8h-0.1c-0.4,0-0.4,0.2-0.4,0.2
		c-0.1,0.6,1.2,2,2.3,2.6c-0.1-0.9-0.5-1.8-1.1-2.6C359.8,411.9,359.6,411.8,359.3,411.8L359.3,411.8z"/>
	<path class="st18" d="M361,146.6c-0.1,0-0.3,0-0.4-0.1c-0.7-0.8-1.6-1.2-2.6-1.1c-0.2,0-0.4-0.1-0.5-0.3c0-0.2,0.1-0.4,0.3-0.4
		c1.3-0.1,2.5,0.4,3.4,1.4c0.1,0.2,0.1,0.4,0,0.6C361.2,146.6,361.1,146.6,361,146.6z"/>
	<path class="st27" d="M359.3,151.6c-0.4,1.6-1,3.2-1.8,4.6c0.8,0.4,1.7,0.4,2.5,0.1L359.3,151.6z"/>
	<path class="st18" d="M359.7,150.3c0.1,0.7-0.2,1.3-0.6,1.3s-0.9-0.4-1-1.1s0.2-1.3,0.6-1.3S359.7,149.7,359.7,150.3z"/>
	<path class="st18" d="M359,149.3l-1.7-0.2C357.3,149.1,358.3,150.2,359,149.3z"/>
	<path class="st18" d="M399.7,414.1h9.4c0.3,0,0.6,0.2,0.7,0.6l1.1,7.5c0.1,0.7-0.5,1.4-1.2,1.5c0,0-0.1,0-0.1,0
		c-3.3-0.1-4.9-0.2-9-0.2c-2.5,0-6.3,0.3-9.8,0.3s-3.7-3.5-2.2-3.8c6.6-1.4,7.6-3.4,9.8-5.2C398.7,414.3,399.2,414.1,399.7,414.1z"
		/>
	<path class="st18" d="M361.9,414.1h9.4c0.3,0,0.6,0.2,0.7,0.6l1.1,7.5c0.1,0.7-0.5,1.4-1.2,1.5c0,0-0.1,0-0.1,0
		c-3.3-0.1-4.9-0.2-9-0.2c-2.5,0-7.8,0.3-11.3,0.3s-3.7-3.5-2.2-3.8c6.6-1.4,9.1-3.4,11.4-5.2C360.9,414.3,361.4,414.1,361.9,414.1z
		"/>
	<path class="st25" d="M350.9,183.9v0.2c0.1,5.6,0.9,15,3.2,30.8l4.7-18.6L350.9,183.9z"/>
	<path class="st23" d="M357.6,186.7c-0.9,4.8-2,9.4-3.3,14.1s-2.5,9.3-4.2,14l-0.6,1.8l-0.7,1.8c-0.2,0.4-0.4,0.8-0.6,1.2
		c-0.3,0.5-0.6,1-1,1.4c-0.9,1-2.1,1.7-3.4,2c-1.1,0.3-2.2,0.3-3.3,0c-0.8-0.2-1.7-0.4-2.4-0.8c-1.3-0.6-2.5-1.3-3.6-2.2
		c-2-1.6-3.9-3.3-5.6-5.2c-0.9-0.9-1.7-1.8-2.4-2.8s-1.5-1.9-2.3-2.9l3.2-2.8c3.4,3,7,5.8,10.9,8.1c0.8,0.5,1.7,0.9,2.6,1.2
		c0.8,0.3,1.5,0.2,1.2,0.2c-0.2,0-0.3,0.1-0.5,0.2l0,0l0.1-0.4l0.5-1.6l0.5-1.6c1.3-4.4,2.4-9,3.5-13.5l3.1-13.8L357.6,186.7z"/>
	<path class="st23" d="M324.3,209.5l-4.6-6.5l6.2-0.5c0,0,3.5,4.1,2.3,7.3L324.3,209.5z"/>
	<polygon class="st23" points="324,201.3 325.3,200.5 325.9,197.4 326.9,198.7 327.6,205.9 	"/>
	<path class="st23" d="M381.9,144.8c0.7,8.3,1.1,11.8-2.4,16.6c-5.3,7.2-15.7,6.2-18.8-1.7c-2.8-7.1-3.5-19.5,4.1-23.9
		c5.4-3.2,12.3-1.4,15.5,4C381.2,141.4,381.8,143.1,381.9,144.8z"/>
	<path class="st18" d="M363.4,134.9c-3.5,1.5-5.4,5.2-4.6,8.9c0,0,6.5-2.8,6.8,7.6c0.2,7.5-5,17.7-5,17.7s12.1,2.5,29.4-2.8
		C397.4,164.1,394.1,119.7,363.4,134.9z"/>
	<path class="st18" d="M362.8,139.5c-1.2,2.8-0.9,8.5,3.8,7.9s3.3-5.3,3.3-5.3L362.8,139.5z"/>
	<path class="st23" d="M367.9,150.8c0,1.6-0.5,3.2-1.6,4.4c-1.5,1.5-3.3,0.5-3.8-1.5c-0.5-1.8-0.2-4.7,1.7-5.5
		c1.4-0.6,3,0.1,3.6,1.5C367.9,150,368,150.4,367.9,150.8z"/>
	<polygon class="st1" points="409.2,404.1 396.1,404.1 394.7,399.5 409.6,399.9 	"/>
	<path class="st1" d="M385.8,228.3h0.9c0.2,0,0.3-0.1,0.3-0.2l-0.4-4c0-0.1-0.2-0.2-0.4-0.2h-0.9c-0.2,0-0.3,0.1-0.3,0.2l0.4,4
		C385.4,228.2,385.6,228.3,385.8,228.3z"/>
	<path class="st1" d="M363.4,228.3h0.9c0.2,0,0.3-0.1,0.3-0.2l-0.4-4c0-0.1-0.2-0.2-0.4-0.2h-0.9c-0.2,0-0.3,0.1-0.3,0.2l0.4,4
		C363.1,228.2,363.2,228.3,363.4,228.3z"/>
	<polygon class="st1" points="372.3,404.1 359.3,404.1 358.3,400.2 372.8,399.5 	"/>
	<path class="st1" d="M390.4,224.5l1.5,3c0.1,0.2-0.2,0.5-0.5,0.5h-35.7c-0.3,0-0.6-0.1-0.6-0.3l-0.3-3c0-0.2,0.2-0.4,0.6-0.4h34.5
		C390,224.2,390.3,224.3,390.4,224.5z"/>
	<path class="st28" d="M390.4,224.5l1.5,3c0.1,0.2-0.2,0.5-0.5,0.5h-35.7c-0.3,0-0.6-0.1-0.6-0.3l-0.3-3c0-0.2,0.2-0.4,0.6-0.4h34.5
		C390,224.2,390.3,224.3,390.4,224.5z"/>
	<path class="st3" d="M385.8,228.3h0.9c0.2,0,0.3-0.1,0.3-0.2l-0.4-4c0-0.1-0.2-0.2-0.4-0.2h-0.9c-0.2,0-0.3,0.1-0.3,0.2l0.4,4
		C385.4,228.2,385.6,228.3,385.8,228.3z"/>
	<path class="st3" d="M363.4,228.3h0.9c0.2,0,0.3-0.1,0.3-0.2l-0.4-4c0-0.1-0.2-0.2-0.4-0.2h-0.9c-0.2,0-0.3,0.1-0.3,0.2l0.4,4
		C363.1,228.2,363.2,228.3,363.4,228.3z"/>
	<path class="st1" d="M351.9,175.9c-3.5,0.9-5.9,15.1-5.9,15.1l13.3,9.1c0,0,5.3-16.9,2.7-20.8C359.2,175.4,356.9,174.6,351.9,175.9
		z"/>
	<path class="st24" d="M351.9,175.9c-3.5,0.9-5.9,15.1-5.9,15.1l13.3,9.1c0,0,5.3-16.9,2.7-20.8
		C359.2,175.4,356.9,174.6,351.9,175.9z"/>
</g>
<g id="freepik--plant-1--inject-433">
	<path class="st1" d="M167.3,355.8c0,0,0-0.1,0-0.1c0.3-1.6,0.5-3.2,0.7-4.9c2.8,3.1,5.3,4,7.1,4c0.2,0,0.4,0,0.6,0
		c3.4-0.3,6.4-3.7,7.8-9c0.1-0.2,0-0.4-0.1-0.6c-0.1-0.2-0.3-0.3-0.5-0.4c-4.9-1.4-10.2-0.4-14.4,2.5c0.1-1.5,0.2-3.1,0.2-4.6
		c0.6,0.1,1.1,0.1,1.7,0.1c5.7,0,9.2-5.1,9.4-5.3c0.1-0.2,0.2-0.4,0.1-0.7c-0.1-0.2-0.3-0.4-0.5-0.5c-3.6-1.3-6.4-1.5-8.6-0.3
		c-1.4,0.7-2.4,1.9-2.9,3.4c-3.1-6.7-9.2-11.4-16.4-12.6c-0.4-0.1-0.7,0.1-0.8,0.5c0,0.1,0,0.1,0,0.2c0.4,5.2,1.3,11.5,5.6,14.5
		c1.7,1.2,3.7,1.8,5.8,1.7c1.8,0,3.5-0.3,5.2-0.8c-0.1,3.7-0.4,7.4-1,11c-2.4-2.7-8.4-8.7-16.6-10.7c-0.3-0.1-0.7,0.1-0.8,0.4
		c0,0,0,0.1,0,0.1c-0.6,4.5,0.4,8.1,3.1,10.4c2.2,2,5.3,3,9,3c1.7,0,3.3-0.2,4.9-0.5c-0.6,3-1.2,6-2,8.9c-2.6-2.1-10.1-7.3-17.2-5.1
		c-0.2,0.1-0.3,0.2-0.4,0.4c-0.1,0.2,0,0.4,0.1,0.6c2.6,4.9,5.3,7.6,8.3,8.6c0.8,0.2,1.6,0.4,2.4,0.4c2.1-0.1,4.2-0.7,6-1.8
		c-1.1,3.8-2.4,7.3-3.6,10.4c-4.1-3.9-10-5.4-15.5-4c-0.4,0.1-0.6,0.4-0.5,0.8c0,0,0,0,0,0c0.8,3.3,3.2,6,6.3,7.3
		c1.1,0.5,2.3,0.7,3.6,0.7c1.6,0,3.2-0.4,4.6-1.2c-1.6,3.9-3.4,7.7-5.4,11.4c-0.2,0.4,0,0.8,0.3,1c0.1,0.1,0.3,0.1,0.4,0.1
		c0.2,0,0.5-0.1,0.6-0.3c2.4-4.5,4.6-9.2,6.4-14c0-0.1,0.1-0.2,0.1-0.2c0.4-0.9,0.7-1.9,1.1-2.9c2.4,2.8,5.3,4.3,8.3,4.3
		c0.3,0,0.6,0,0.9,0c3.3-0.3,6.1-2.7,6.9-6c0.1-0.4-0.1-0.7-0.5-0.9c-4.5-2.5-9.9-2.7-14.5-0.6c0.8-2.3,1.6-4.7,2.3-7.2
		c0.1-0.1,0.1-0.2,0.1-0.3l0,0c0.2-0.7,0.4-1.4,0.6-2.1c2.9,3.1,5.6,4.7,8.1,4.7l0,0c3.1,0,6-2.3,8.8-7c0.2-0.4,0-0.8-0.3-1
		c-5.8-4-12.8-1.3-15.9,0.3c0.4-1.9,0.8-3.8,1.2-5.7L167.3,355.8z"/>
	<path class="st6" d="M167.3,355.8c0,0,0-0.1,0-0.1c0.3-1.6,0.5-3.2,0.7-4.9c2.8,3.1,5.3,4,7.1,4c0.2,0,0.4,0,0.6,0
		c3.4-0.3,6.4-3.7,7.8-9c0.1-0.2,0-0.4-0.1-0.6c-0.1-0.2-0.3-0.3-0.5-0.4c-4.9-1.4-10.2-0.4-14.4,2.5c0.1-1.5,0.2-3.1,0.2-4.6
		c0.6,0.1,1.1,0.1,1.7,0.1c5.7,0,9.2-5.1,9.4-5.3c0.1-0.2,0.2-0.4,0.1-0.7c-0.1-0.2-0.3-0.4-0.5-0.5c-3.6-1.3-6.4-1.5-8.6-0.3
		c-1.4,0.7-2.4,1.9-2.9,3.4c-3.1-6.7-9.2-11.4-16.4-12.6c-0.4-0.1-0.7,0.1-0.8,0.5c0,0.1,0,0.1,0,0.2c0.4,5.2,1.3,11.5,5.6,14.5
		c1.7,1.2,3.7,1.8,5.8,1.7c1.8,0,3.5-0.3,5.2-0.8c-0.1,3.7-0.4,7.4-1,11c-2.4-2.7-8.4-8.7-16.6-10.7c-0.3-0.1-0.7,0.1-0.8,0.4
		c0,0,0,0.1,0,0.1c-0.6,4.5,0.4,8.1,3.1,10.4c2.2,2,5.3,3,9,3c1.7,0,3.3-0.2,4.9-0.5c-0.6,3-1.2,6-2,8.9c-2.6-2.1-10.1-7.3-17.2-5.1
		c-0.2,0.1-0.3,0.2-0.4,0.4c-0.1,0.2,0,0.4,0.1,0.6c2.6,4.9,5.3,7.6,8.3,8.6c0.8,0.2,1.6,0.4,2.4,0.4c2.1-0.1,4.2-0.7,6-1.8
		c-1.1,3.8-2.4,7.3-3.6,10.4c-4.1-3.9-10-5.4-15.5-4c-0.4,0.1-0.6,0.4-0.5,0.8c0,0,0,0,0,0c0.8,3.3,3.2,6,6.3,7.3
		c1.1,0.5,2.3,0.7,3.6,0.7c1.6,0,3.2-0.4,4.6-1.2c-1.6,3.9-3.4,7.7-5.4,11.4c-0.2,0.4,0,0.8,0.3,1c0.1,0.1,0.3,0.1,0.4,0.1
		c0.2,0,0.5-0.1,0.6-0.3c2.4-4.5,4.6-9.2,6.4-14c0-0.1,0.1-0.2,0.1-0.2c0.4-0.9,0.7-1.9,1.1-2.9c2.4,2.8,5.3,4.3,8.3,4.3
		c0.3,0,0.6,0,0.9,0c3.3-0.3,6.1-2.7,6.9-6c0.1-0.4-0.1-0.7-0.5-0.9c-4.5-2.5-9.9-2.7-14.5-0.6c0.8-2.3,1.6-4.7,2.3-7.2
		c0.1-0.1,0.1-0.2,0.1-0.3l0,0c0.2-0.7,0.4-1.4,0.6-2.1c2.9,3.1,5.6,4.7,8.1,4.7l0,0c3.1,0,6-2.3,8.8-7c0.2-0.4,0-0.8-0.3-1
		c-5.8-4-12.8-1.3-15.9,0.3c0.4-1.9,0.8-3.8,1.2-5.7L167.3,355.8z"/>
	<path class="st1" d="M131,376.1c1.1,0.3,2.2,0.5,3.3,0.5c5.6,0,10.1-4.6,10-10.1c0-0.4,0-0.9-0.1-1.3c-0.1-0.3-0.4-0.5-0.7-0.5
		c-5.6,0.6-10.6,3.7-13.7,8.5c-1.3-3.5-2.4-7.1-3.4-11c1.6,1,3.4,1.5,5.3,1.6c0.8,0,1.5-0.1,2.3-0.4c3.9-1.3,6.6-5.9,8.9-10.8
		c0.1-0.2,0.1-0.4,0-0.6c-0.1-0.2-0.2-0.3-0.4-0.4c-7.6-2.2-14.5,5.3-16.7,7.9c-0.8-3.2-1.4-6.5-1.8-9.8c1.6,0.3,3.2,0.5,4.9,0.5
		c4,0,7.2-1.1,9.3-3.1c2.5-2.5,3.4-6.2,2.5-10.7c-0.1-0.3-0.4-0.6-0.7-0.5c0,0,0,0-0.1,0c-8.1,2.2-13.8,8.2-16.2,11.1
		c0-0.6-0.1-1.2-0.1-1.8c0-0.1-0.1-0.3-0.2-0.4c-0.4-2.2-1.8-4.2-3.8-5.3c-2.2-1.1-5.2-0.9-8.7,0.5c-0.2,0.1-0.4,0.3-0.4,0.5
		c-0.1,0.2,0,0.4,0.1,0.6c0.2,0.2,4,5.3,9.7,5.3c0.6,0,1.2-0.1,1.8-0.2c0.1,1.6,0.3,3.3,0.5,4.9c-4.4-3-9.8-3.9-14.9-2.4
		c-0.2,0-0.4,0.2-0.5,0.4c-0.1,0.2-0.1,0.4-0.1,0.6c1.8,5.4,4.9,8.8,8.4,9.1c0.2,0,0.3,0,0.5,0c1.8,0,4.3-0.8,7-4.1
		c0.7,3.7,1.5,7.4,2.6,11.1c-3.2-1.6-10.5-4.3-16.2-0.2c-0.3,0.2-0.4,0.7-0.2,1c0,0,0,0,0,0c3.1,4.7,6.1,7,9.2,7h0.1
		c2.6,0,5.2-1.6,8-4.9c1.1,3.6,2.4,6.9,3.6,10.1c-3.2-2.1-6.9-1.7-11.4,1c-0.2,0.1-0.3,0.3-0.4,0.6c0,0.2,0.1,0.4,0.2,0.6
		c0.2,0.2,4.1,3.1,8.5,3.1c1.7,0,3.3-0.5,4.7-1.4c2.5,5.7,5.3,11.3,8.5,16.6c0.1,0.2,0.4,0.3,0.6,0.3c0.2,0,0.3,0,0.4-0.1
		c0.4-0.2,0.5-0.7,0.3-1.1C137.5,391.2,133.9,383.8,131,376.1z"/>
	<path class="st17" d="M131,376.1c1.1,0.3,2.2,0.5,3.3,0.5c5.6,0,10.1-4.6,10-10.1c0-0.4,0-0.9-0.1-1.3c-0.1-0.3-0.4-0.5-0.7-0.5
		c-5.6,0.6-10.6,3.7-13.7,8.5c-1.3-3.5-2.4-7.1-3.4-11c1.6,1,3.4,1.5,5.3,1.6c0.8,0,1.5-0.1,2.3-0.4c3.9-1.3,6.6-5.9,8.9-10.8
		c0.1-0.2,0.1-0.4,0-0.6c-0.1-0.2-0.2-0.3-0.4-0.4c-7.6-2.2-14.5,5.3-16.7,7.9c-0.8-3.2-1.4-6.5-1.8-9.8c1.6,0.3,3.2,0.5,4.9,0.5
		c4,0,7.2-1.1,9.3-3.1c2.5-2.5,3.4-6.2,2.5-10.7c-0.1-0.3-0.4-0.6-0.7-0.5c0,0,0,0-0.1,0c-8.1,2.2-13.8,8.2-16.2,11.1
		c0-0.6-0.1-1.2-0.1-1.8c0-0.1-0.1-0.3-0.2-0.4c-0.4-2.2-1.8-4.2-3.8-5.3c-2.2-1.1-5.2-0.9-8.7,0.5c-0.2,0.1-0.4,0.3-0.4,0.5
		c-0.1,0.2,0,0.4,0.1,0.6c0.2,0.2,4,5.3,9.7,5.3c0.6,0,1.2-0.1,1.8-0.2c0.1,1.6,0.3,3.3,0.5,4.9c-4.4-3-9.8-3.9-14.9-2.4
		c-0.2,0-0.4,0.2-0.5,0.4c-0.1,0.2-0.1,0.4-0.1,0.6c1.8,5.4,4.9,8.8,8.4,9.1c0.2,0,0.3,0,0.5,0c1.8,0,4.3-0.8,7-4.1
		c0.7,3.7,1.5,7.4,2.6,11.1c-3.2-1.6-10.5-4.3-16.2-0.2c-0.3,0.2-0.4,0.7-0.2,1c0,0,0,0,0,0c3.1,4.7,6.1,7,9.2,7h0.1
		c2.6,0,5.2-1.6,8-4.9c1.1,3.6,2.4,6.9,3.6,10.1c-3.2-2.1-6.9-1.7-11.4,1c-0.2,0.1-0.3,0.3-0.4,0.6c0,0.2,0.1,0.4,0.2,0.6
		c0.2,0.2,4.1,3.1,8.5,3.1c1.7,0,3.3-0.5,4.7-1.4c2.5,5.7,5.3,11.3,8.5,16.6c0.1,0.2,0.4,0.3,0.6,0.3c0.2,0,0.3,0,0.4-0.1
		c0.4-0.2,0.5-0.7,0.3-1.1C137.5,391.2,133.9,383.8,131,376.1z"/>
	<polygon class="st18" points="158.5,416.2 134.7,416.2 132.9,391.6 160.3,391.6 	"/>
	<rect x="131.1" y="390" class="st18" width="31" height="4.2"/>
</g>
<g id="freepik--Mobile--inject-433">
	<path class="st1" d="M93,270.6h55c3.9,0,7,3.1,7,7v131.7c0,3.9-3.1,7-7,7H93c-3.9,0-7-3.1-7-7V277.6C86,273.7,89.1,270.6,93,270.6z
		"/>
	<path class="st3" d="M93,270.6h55c3.9,0,7,3.1,7,7v131.7c0,3.9-3.1,7-7,7H93c-3.9,0-7-3.1-7-7V277.6C86,273.7,89.1,270.6,93,270.6z
		"/>
	<path class="st1" d="M89.7,270.6h55c3.9,0,7,3.1,7,7v131.7c0,3.9-3.1,7-7,7h-55c-3.9,0-7-3.1-7-7V277.6
		C82.7,273.7,85.8,270.6,89.7,270.6z"/>
	<path class="st6" d="M89.7,270.6h55c3.9,0,7,3.1,7,7v131.7c0,3.9-3.1,7-7,7h-55c-3.9,0-7-3.1-7-7V277.6
		C82.7,273.7,85.8,270.6,89.7,270.6z"/>
	<rect x="82.7" y="278.6" class="st19" width="69" height="125.2"/>
	<rect x="82.7" y="278.3" class="st29" width="69" height="125.2"/>
	<polygon class="st14" points="107.7,278.6 85.3,403.8 107.5,403.8 129.9,278.6 	"/>
	<polygon class="st14" points="135.3,278.6 112.9,403.8 124,403.8 146.3,278.6 	"/>
	<path class="st1" d="M120.3,409.6c0,1.7-1.4,3.1-3.1,3.1s-3.1-1.4-3.1-3.1c0-1.7,1.4-3.1,3.1-3.1c0,0,0,0,0,0
		C118.9,406.5,120.3,407.9,120.3,409.6z"/>
	<path class="st16" d="M120.3,409.6c0,1.7-1.4,3.1-3.1,3.1s-3.1-1.4-3.1-3.1c0-1.7,1.4-3.1,3.1-3.1c0,0,0,0,0,0
		C118.9,406.5,120.3,407.9,120.3,409.6z"/>
	<circle class="st1" cx="125.3" cy="274.3" r="1.1"/>
	<path class="st1" d="M120.8,275.4H109c-0.6,0-1.1-0.5-1.1-1.1l0,0l0,0c0-0.6,0.5-1.1,1.1-1.1h11.8c0.6,0,1.1,0.5,1.1,1.1l0,0
		C121.9,274.9,121.4,275.4,120.8,275.4z"/>
	<circle class="st16" cx="125.3" cy="274.3" r="1.1"/>
	<path class="st16" d="M120.8,275.4H109c-0.6,0-1.1-0.5-1.1-1.1l0,0l0,0c0-0.6,0.5-1.1,1.1-1.1h11.8c0.6,0,1.1,0.5,1.1,1.1l0,0
		C121.9,274.9,121.4,275.4,120.8,275.4z"/>
</g>
</svg>
